<svg width="185" height="220" viewBox="0 0 185 220" fill="none" xmlns="http://www.w3.org/2000/svg">
<path d="M118.357 47.25C115.194 42.6994 113.73 37.1817 114.223 31.6615C114.715 26.1413 117.132 20.9698 121.051 17.0509C124.97 13.132 130.141 10.7152 135.661 10.2228C141.182 9.73039 146.699 11.1938 151.25 14.3572M153.518 64.6549L143.97 55.107L153.518 64.6549ZM153.518 64.6549L158.243 74.1521C160.642 71.8132 168.78 60.9255 163.012 55.1576L153.518 64.6549ZM153.518 64.6549L163.012 55.1576L153.518 64.6549ZM143.97 55.107L153.518 45.5625L153.565 45.5119L143.97 55.107ZM143.97 55.107L134.375 50.2875C136.812 47.9149 147.878 39.825 153.565 45.5119L143.97 55.107ZM163.062 55.107L163.012 55.1576L163.062 55.107ZM163.012 55.1576L171.456 46.7167C175.06 43.1116 177.57 38.5599 178.695 33.588L179.769 28.8562L175.037 29.9295C170.065 31.0549 165.513 33.5648 161.908 37.1689L153.565 45.5119L163.012 55.1576ZM115.522 44.9314C111.003 52.0762 109.278 57.7766 111.499 60.0007C113.477 61.9785 118.205 60.831 124.25 57.375L115.522 44.9314ZM148.931 11.5222C156.076 7.00312 161.776 5.27849 164.001 7.49924C166.991 10.4861 162.836 19.764 154.368 30.375L148.931 11.5222Z" stroke="white" stroke-opacity="0.8" stroke-width="2" stroke-linecap="round" stroke-linejoin="round"/>
<path d="M95.3347 179.656C95.3347 171.864 88.9938 165.524 81.2009 165.524C73.409 165.524 67.0691 171.864 67.0691 179.656C67.0691 187.448 73.409 193.789 81.2009 193.789C88.9938 193.789 95.3347 187.448 95.3347 179.656" fill="white" fill-opacity="0.8"/>
<path d="M93.7801 201.356L93.8314 199.696C93.8335 199.615 93.8764 198.056 93.6785 195.918C95.722 196.66 97.262 197.023 97.3415 197.041L98.9925 197.426L98.6009 195.799C98.289 194.575 97.908 193.369 97.4598 192.188C98.9286 192.32 100.139 192.344 100.83 192.344H100.831C101.129 192.344 101.296 192.339 101.296 192.339L102.993 192.289L102.185 190.817C101.561 189.715 100.877 188.648 100.136 187.621C102.281 187.257 103.799 186.814 103.877 186.79L105.502 186.311L104.34 185.094C104.282 185.034 103.193 183.901 101.52 182.526C102.683 182.003 103.817 181.416 104.916 180.768L106.358 179.89L104.916 179.013C104.846 178.969 103.497 178.153 101.52 177.254C103.194 175.879 104.282 174.746 104.34 174.688L105.503 173.471L103.877 172.991C103.798 172.969 102.281 172.525 100.136 172.16C101.391 170.406 102.147 169.035 102.185 168.963L102.992 167.493L101.296 167.441C101.296 167.441 101.124 167.435 100.814 167.435C100.124 167.435 98.9202 167.46 97.4609 167.592C97.9084 166.411 98.289 165.206 98.6009 163.982L98.9925 162.356L97.3426 162.739C97.262 162.759 95.722 163.121 93.6785 163.862C93.8764 161.726 93.8335 160.165 93.8314 160.084L93.7801 158.412L92.2883 159.209C92.216 159.248 90.8247 159.991 89.044 161.232C88.8316 159.987 88.5499 158.755 88.2002 157.541L87.7134 155.94L86.4781 157.088C85.5609 157.966 84.6928 158.893 83.8777 159.866C82.9627 157.917 82.1346 156.586 82.0907 156.517L81.1998 155.094L80.3099 156.515C80.266 156.585 79.4379 157.915 78.525 159.864C77.7096 158.891 76.8415 157.964 75.9246 157.086L74.6893 155.936L74.2025 157.539C74.1794 157.618 73.7282 159.114 73.3587 161.231C72.3153 160.497 71.2322 159.821 70.1144 159.207L68.6216 158.413L68.5692 160.085C68.5671 160.166 68.5253 161.727 68.7231 163.863C67.523 163.423 66.2998 163.048 65.0591 162.74L63.4092 162.357L63.8007 163.983C63.8196 164.062 64.1881 165.579 64.9408 167.593C63.8256 167.492 62.7064 167.439 61.5866 167.436C61.2777 167.436 61.1061 167.442 61.1061 167.442L59.4112 167.494L60.2162 168.964C60.84 170.067 61.5246 171.134 62.267 172.161C60.122 172.526 58.604 172.969 58.5245 172.992L56.8987 173.472L58.0628 174.689C58.1204 174.748 59.2091 175.882 60.882 177.255C58.9045 178.153 57.5561 178.97 57.486 179.014L56.0434 179.891L57.486 180.769C57.5561 180.812 58.9045 181.628 60.882 182.527C59.2081 183.902 58.1183 185.035 58.0628 185.095L56.8997 186.312L58.5255 186.791C58.6051 186.814 60.122 187.257 62.2681 187.622C61.0108 189.376 60.256 190.746 60.2173 190.818L59.4112 192.291L61.1082 192.341C61.1082 192.341 61.2736 192.345 61.573 192.345C62.266 192.345 63.4751 192.321 64.9429 192.189C64.4953 193.37 64.1143 194.576 63.8018 195.8L63.4102 197.427L65.0612 197.042C65.1407 197.023 66.6817 196.661 68.7242 195.919C68.5263 198.055 68.5682 199.615 68.5703 199.696L68.6101 200.976C62.2503 198.042 55.2812 198.056 55.2812 198.056C55.2812 198.056 69.7417 203.254 78.5679 217.906H83.7667C92.5835 205.321 109.719 196.535 109.719 196.535C109.719 196.535 101.42 197.251 93.7801 201.356ZM78.8349 211.176C77.7409 208.958 76.3166 206.919 74.6108 205.129C72.987 203.431 71.0346 202.143 69.0047 201.164L70.1165 200.574C70.1887 200.535 71.5811 199.792 73.3618 198.552C73.7324 200.668 74.1826 202.166 74.2067 202.244L74.6945 203.846L75.9288 202.697C76.8453 201.82 77.7131 200.892 78.5282 199.92C78.7742 200.446 79.0129 200.922 79.2327 201.345L78.8349 211.176V211.176ZM81.2008 200.607C80.6726 199.609 80.1922 198.586 79.7614 197.542L79.0683 195.849L77.9555 197.309C77.2669 198.207 76.5354 199.072 75.7634 199.9C75.5163 198.8 75.3213 197.69 75.1792 196.572L74.9552 194.758L73.4948 195.884C72.5928 196.578 71.6579 197.227 70.6933 197.83C70.7331 196.922 70.819 195.742 71.0022 194.469L71.2618 192.659L69.5554 193.375C68.3557 193.877 67.2219 194.266 66.3415 194.539C66.62 193.67 67.0136 192.553 67.5234 191.37L68.2489 189.69L66.4137 189.944C65.2811 190.099 64.1419 190.201 62.9999 190.25C63.6139 189.299 64.2728 188.378 64.9743 187.49L66.1164 186.051L64.277 185.83C63.1435 185.692 62.0172 185.5 60.9019 185.254C61.744 184.491 62.6223 183.769 63.5338 183.09L65.014 181.992L63.294 181.31C62.2359 180.887 61.1986 180.414 60.1859 179.892C61.1984 179.371 62.2353 178.898 63.293 178.476L65.014 177.794L63.5338 176.695C62.6227 176.016 61.7444 175.294 60.9019 174.531C62.0173 174.287 63.1436 174.094 64.277 173.955L66.1164 173.733L64.9743 172.295C64.2724 171.407 63.6136 170.486 62.9999 169.534C63.9138 169.574 65.1156 169.659 66.4116 169.84L68.2478 170.095L67.5224 168.414C67.0781 167.378 66.6841 166.321 66.3415 165.246C67.223 165.521 68.3557 165.907 69.5554 166.41L71.2618 167.128L71.0022 165.318C70.8444 164.202 70.7413 163.079 70.6933 161.953C71.4712 162.442 72.4626 163.107 73.4937 163.9L74.9541 165.026L75.1782 163.212C75.3352 161.936 75.5624 160.775 75.7634 159.885C76.5352 160.714 77.2668 161.579 77.9555 162.478L79.0683 163.938L79.7624 162.244C80.2513 161.05 80.7748 159.986 81.2019 159.178C81.7309 160.176 82.2113 161.199 82.6413 162.244L83.3354 163.939L84.4482 162.477C85.1375 161.579 85.869 160.714 86.6404 159.885C86.8403 160.774 87.0665 161.935 87.2256 163.211L87.4496 165.025L88.91 163.899C89.8122 163.206 90.7467 162.557 91.7104 161.953C91.6706 162.863 91.5848 164.042 91.4016 165.315L91.142 167.125L92.8484 166.409C93.9006 165.971 94.9731 165.583 96.0623 165.246C95.7197 166.321 95.3256 167.378 94.8814 168.414L94.157 170.095L95.9921 169.84C97.124 169.685 98.2625 169.583 99.4039 169.534C98.7903 170.485 98.1318 171.407 97.4305 172.295L96.2873 173.734L98.1267 173.955C99.4206 174.11 100.599 174.333 101.502 174.531C100.66 175.294 99.7814 176.016 98.87 176.695L97.3897 177.794L99.1097 178.476C100.319 178.955 101.398 179.471 102.218 179.892C101.398 180.313 100.319 180.829 99.1087 181.31L97.3897 181.992L98.87 183.09C99.9127 183.865 100.82 184.639 101.502 185.254C100.6 185.451 99.4227 185.674 98.1267 185.83L96.2863 186.051L97.4305 187.49C98.1314 188.378 98.7896 189.299 99.4028 190.25C98.2611 190.201 97.1223 190.099 95.99 189.944L94.1549 189.69L94.8803 191.37C95.3244 192.407 95.7189 193.465 96.0623 194.54C94.9734 194.202 93.9009 193.813 92.8484 193.375L91.142 192.659L91.4016 194.469C91.5848 195.742 91.6706 196.923 91.7104 197.832C90.7465 197.228 89.8117 196.578 88.909 195.885L87.4486 194.761L87.2245 196.574C87.0837 197.692 86.8884 198.802 86.6393 199.9C85.8674 199.072 85.1359 198.207 84.4472 197.308L83.3344 195.85L82.6413 197.541C82.2106 198.586 81.7299 199.609 81.2008 200.607V200.607ZM89.7622 203.925C86.5692 206.355 84.5131 209.718 83.237 212.541L82.813 202.016C83.1177 201.459 83.4883 200.75 83.8777 199.919C84.6928 200.892 85.5609 201.82 86.4781 202.697L87.7124 203.847L88.2002 202.244C88.2233 202.166 88.6745 200.669 89.0451 198.554C90.0889 199.287 91.1723 199.962 92.2904 200.575L93.7728 201.362C92.3701 202.109 91.029 202.966 89.7622 203.925" fill="white" fill-opacity="0.8"/>
<path d="M139.68 197.52C138.802 195.346 140.408 192.502 142.1 190.708C141.444 188.328 141.358 185.064 143.152 183.558C144.946 182.05 148.146 182.698 150.378 183.754C152.438 182.394 155.514 181.302 157.504 182.542C159.492 183.782 159.864 187.028 159.55 189.476C161.478 191.014 163.468 193.604 162.902 195.878C162.336 198.152 159.366 199.51 156.942 199.966C156.074 202.276 154.226 204.968 151.888 205.134C150.232 205.25 148.648 204.072 147.44 202.608C145 205.648 143.276 208.862 142.33 212.02C143.776 209.86 146.77 208 153 208C153 216.31 146.916 218.006 143 218.006L136.6 218.01C136.6 212.564 138.572 206.19 143.18 200.208C141.614 199.714 140.222 198.854 139.68 197.52ZM148.434 197.08C148.979 197.42 149.587 197.65 150.221 197.755C150.855 197.861 151.503 197.841 152.13 197.696C152.756 197.551 153.347 197.284 153.87 196.91C154.394 196.536 154.838 196.063 155.178 195.518C155.518 194.973 155.748 194.366 155.854 193.732C155.959 193.097 155.939 192.449 155.794 191.823C155.649 191.196 155.382 190.605 155.008 190.082C154.635 189.559 154.161 189.114 153.616 188.774C152.515 188.087 151.185 187.866 149.921 188.159C148.656 188.452 147.56 189.236 146.873 190.337C146.186 191.438 145.965 192.768 146.258 194.032C146.551 195.297 147.335 196.393 148.436 197.08H148.434ZM136.96 204.496C134.794 208.836 133.622 213.402 133.604 217.906C127.008 213.164 127 204.412 127 196.006C127 196.006 134.34 198.074 136.96 204.496V204.496Z" fill="white" fill-opacity="0.8"/>
<path d="M25.3199 195.52C26.1979 193.346 24.5919 190.502 22.8999 188.708C23.5559 186.328 23.6419 183.064 21.8479 181.558C20.0539 180.05 16.8539 180.698 14.6219 181.754C12.5619 180.394 9.4859 179.302 7.4959 180.542C5.5079 181.782 5.1359 185.028 5.4499 187.476C3.5219 189.014 1.5319 191.604 2.0979 193.878C2.6639 196.152 5.6339 197.51 8.0579 197.966C8.9259 200.276 10.7739 202.968 13.1119 203.134C14.7679 203.25 16.3519 202.072 17.5599 200.608C19.9999 203.648 21.7239 206.862 22.6699 210.02C21.2239 207.86 18.2299 206 11.9999 206C11.9999 214.31 18.0839 216.006 21.9999 216.006L28.3999 216.01C28.3999 210.564 26.4279 204.19 21.8199 198.208C23.3859 197.714 24.7779 196.854 25.3199 195.52ZM16.5659 195.08C16.0205 195.42 15.4135 195.65 14.7794 195.755C14.1453 195.861 13.4966 195.841 12.8704 195.696C12.2442 195.551 11.6526 195.284 11.1296 194.91C10.6065 194.536 10.1622 194.063 9.8219 193.518C9.48164 192.973 9.25214 192.366 9.14649 191.732C9.04084 191.097 9.06112 190.449 9.20617 189.823C9.35121 189.196 9.61818 188.605 9.99184 188.082C10.3655 187.559 10.8385 187.114 11.3839 186.774C12.4853 186.087 13.8145 185.866 15.0791 186.159C16.3437 186.452 17.44 187.236 18.1269 188.337C18.8138 189.438 19.035 190.768 18.7419 192.032C18.4488 193.297 17.6653 194.393 16.5639 195.08H16.5659ZM28.0399 202.496C30.2059 206.836 31.3779 211.402 31.3959 215.906C37.9919 211.164 37.9999 202.412 37.9999 194.006C37.9999 194.006 30.6599 196.074 28.0399 202.496V202.496Z" fill="white" fill-opacity="0.8"/>
<path d="M15.3701 67.18C16.0201 67.15 16.5701 66.9 17.0201 66.43C17.4701 65.96 17.7001 65.4 17.7001 64.75C17.7001 65.4 17.9201 65.96 18.3701 66.43C18.8201 66.9 19.3701 67.15 20.0201 67.18C19.3701 67.21 18.8201 67.46 18.3701 67.93C18.1526 68.1515 17.9813 68.4142 17.8662 68.7026C17.7512 68.9911 17.6947 69.2995 17.7001 69.61C17.7001 68.96 17.4801 68.4 17.0201 67.93C16.5701 67.46 16.0201 67.21 15.3701 67.18V67.18ZM17.7001 59.98C18.9601 59.92 20.0301 59.43 20.9101 58.51C21.7901 57.59 22.2301 56.5 22.2301 55.23C22.2301 56.5 22.6701 57.59 23.5501 58.51C24.4301 59.43 25.5001 59.91 26.7701 59.98C25.9401 60.02 25.1801 60.25 24.4801 60.69C23.7901 61.12 23.2401 61.7 22.8301 62.42C22.4301 63.14 22.2301 63.91 22.2301 64.75C22.2301 63.48 21.7901 62.38 20.9101 61.46C20.0301 60.53 18.9601 60.04 17.7001 59.98ZM21.0201 70.75C21.9701 70.71 22.7801 70.34 23.4401 69.65C24.1001 68.96 24.4301 68.14 24.4301 67.18C24.4301 68.14 24.7601 68.96 25.4201 69.65C26.0801 70.34 26.8801 70.71 27.8301 70.75C26.8801 70.79 26.0801 71.16 25.4201 71.85C24.7601 72.54 24.4301 73.36 24.4301 74.32C24.4301 73.36 24.1001 72.54 23.4401 71.85C22.8093 71.1796 21.94 70.7844 21.0201 70.75V70.75ZM27.8301 66.01C28.7801 65.97 29.5801 65.6 30.2401 64.91C30.9001 64.22 31.2201 63.4 31.2201 62.43C31.2201 63.39 31.5501 64.21 32.2101 64.9C32.8701 65.59 33.6801 65.96 34.6301 66C33.6801 66.04 32.8701 66.41 32.2101 67.1C31.5501 67.79 31.2201 68.61 31.2201 69.57C31.2201 68.61 30.8901 67.79 30.2401 67.1C29.5801 66.42 28.7801 66.05 27.8301 66.01V66.01Z" fill="white" fill-opacity="0.8"/>
</svg>
