<svg width="46" height="46" viewBox="0 0 46 46" fill="none" xmlns="http://www.w3.org/2000/svg">
<g clip-path="url(#clip0_4_2)">
<path d="M21.9345 28C22.7043 29.3333 24.6288 29.3333 25.3986 28L31.8937 16.75C32.6635 15.4167 31.7013 13.75 30.1617 13.75H17.1713C15.6317 13.75 14.6695 15.4167 15.4393 16.75L21.9345 28Z" fill="#FFCD41"/>
<rect x="16.1665" y="18" width="15" height="11" fill="#FFCD41"/>
<path d="M25.2948 22.2831C24.4973 21.1648 22.8357 21.1648 22.0382 22.2831L16.8279 29.5887C15.8837 30.9126 16.8301 32.75 18.4562 32.75H28.8768C30.5029 32.75 31.4493 30.9126 30.5051 29.5887L25.2948 22.2831Z" fill="#FFCD41"/>
<path d="M19.4999 9.58337L21.4166 3.83337H25.2499L27.1666 9.58337L38.6666 15.3334H34.8333L33.6833 21.0834H42.4999V13.4167H46.3333V32.5834H42.4999V24.9167H32.9166L30.9999 34.5L27.1666 38.3334L25.2499 42.1667H21.4166L19.4999 38.3334L15.6666 34.5L11.8333 15.3334H7.99992L19.4999 9.58337ZM19.1933 32.5834H27.4733L30.9999 15.3334H15.6666L19.1933 32.5834Z" fill="#2E3440"/>
</g>
<defs>
<clipPath id="clip0_4_2">
<rect width="46" height="46" fill="white" transform="matrix(-1 0 0 1 46 0)"/>
</clipPath>
</defs>
</svg>
