<svg width="136" height="136" viewBox="0 0 136 136" fill="none" xmlns="http://www.w3.org/2000/svg">
<circle cx="68" cy="68" r="68" fill="white" fill-opacity="0.9"/>
<path d="M74.9058 87.5229C-27.2655 112.596 51.0868 50.0228 51.0868 50.0228L117.804 50.0226" stroke="black" stroke-width="6"/>
<path d="M99.7876 95.9887C100.886 96.106 101.871 95.3107 101.989 94.2124L103.9 76.3142C104.017 75.2158 103.222 74.2304 102.124 74.1131C101.026 73.9958 100.04 74.7911 99.9228 75.8894L98.2237 91.7989L82.3142 90.0998C81.2158 89.9826 80.2304 90.7778 80.1131 91.8762C79.9958 92.9745 80.7911 93.9599 81.8894 94.0772L99.7876 95.9887ZM52.4436 38.256L98.4436 95.256L101.556 92.744L55.5564 35.744L52.4436 38.256Z" fill="black"/>
</svg>
