<svg width="85" height="85" viewBox="0 0 85 85" fill="none" xmlns="http://www.w3.org/2000/svg">
<g clip-path="url(#clip0_57_31)">
<path d="M42.5 0C31.2283 0 20.4183 4.47767 12.448 12.448C4.47767 20.4183 0 31.2283 0 42.5C0 53.7717 4.47767 64.5817 12.448 72.552C20.4183 80.5223 31.2283 85 42.5 85C53.7717 85 64.5817 80.5223 72.552 72.552C80.5223 64.5817 85 53.7717 85 42.5C85 31.2283 80.5223 20.4183 72.552 12.448C64.5817 4.47767 53.7717 0 42.5 0V0ZM25.2663 24.2569C29.3197 16.6919 46.6225 23.6194 30.3238 42.5C6.43875 34.0213 17.8394 19.6669 25.2663 24.2569ZM60.1109 53.1994C60.6152 53.0806 61.1432 53.112 61.63 53.2895C62.1167 53.4671 62.5408 53.7831 62.8502 54.1986C63.1596 54.6141 63.3408 55.1111 63.3713 55.6283C63.4019 56.1455 63.2805 56.6603 63.0222 57.1094C60.9244 60.745 57.906 63.7639 54.2707 65.8623C50.6354 67.9606 46.5115 69.0644 42.3141 69.0625C38.1166 69.0644 33.9927 67.9606 30.3574 65.8623C26.7222 63.7639 23.7037 60.745 21.6059 57.1094C21.3476 56.6603 21.2263 56.1455 21.2568 55.6283C21.2874 55.1111 21.4685 54.6141 21.7779 54.1986C22.0873 53.7831 22.5115 53.4671 22.9982 53.2895C23.4849 53.112 24.0129 53.0806 24.5172 53.1994H24.5437L24.6341 53.2259L24.99 53.3056L26.3287 53.5978C27.4709 53.8422 29.0647 54.1716 30.8816 54.4956C34.5631 55.1544 38.9672 55.7812 42.3141 55.7812C45.6609 55.7812 50.0703 55.1544 53.7466 54.4956C55.7186 54.1408 57.6829 53.744 59.6381 53.3056L59.9941 53.2259L60.0844 53.2047L60.1109 53.1941V53.1994ZM59.7391 24.2569C67.1606 19.6669 78.5612 34.0213 54.6762 42.5C38.3828 23.6194 55.6856 16.6919 59.7338 24.2569H59.7391Z" fill="#F79489"/>
</g>
<defs>
<clipPath id="clip0_57_31">
<rect width="85" height="85" fill="white"/>
</clipPath>
</defs>
</svg>
