<svg width="100" height="100" viewBox="0 0 100 100" fill="none" xmlns="http://www.w3.org/2000/svg">
<path fill-rule="evenodd" clip-rule="evenodd" d="M0 25C0 21.6848 1.31696 18.5054 3.66117 16.1612C6.00537 13.817 9.18479 12.5 12.5 12.5H87.5C90.8152 12.5 93.9946 13.817 96.3388 16.1612C98.683 18.5054 100 21.6848 100 25V75C100 78.3152 98.683 81.4946 96.3388 83.8388C93.9946 86.183 90.8152 87.5 87.5 87.5H12.5C9.18479 87.5 6.00537 86.183 3.66117 83.8388C1.31696 81.4946 0 78.3152 0 75V25ZM12.5 18.75C10.8424 18.75 9.25268 19.4085 8.08058 20.5806C6.90848 21.7527 6.25 23.3424 6.25 25V26.3563L26.4688 38.4813C25.5759 40.5075 25.0814 42.6868 25.0125 44.9L6.25 33.65V69.4062L27.8313 56.1312C28.7438 57.8625 29.8875 59.6062 31.2687 61.35L6.45625 76.6187C6.81285 77.9486 7.5986 79.1235 8.69147 79.961C9.78434 80.7984 11.1232 81.2515 12.5 81.25H87.5C88.8758 81.2502 90.2132 80.7964 91.3048 79.959C92.3964 79.1217 93.1812 77.9476 93.5375 76.6187L68.7375 61.3563C70.1125 59.6063 71.2563 57.8562 72.175 56.1312L93.75 69.4062V33.6437L74.9875 44.9C74.9178 42.6889 74.4234 40.5118 73.5313 38.4875L93.75 26.3563V25C93.75 23.3424 93.0915 21.7527 91.9194 20.5806C90.7473 19.4085 89.1576 18.75 87.5 18.75H12.5ZM50 37.4563C60.4 26.7625 86.4062 45.475 50 69.5312C13.5938 45.4688 39.6 26.7625 50 37.4563Z" fill="#F79489"/>
</svg>
